<svg width="3300" height="2200" viewBox="0 0 3300 2200" fill="none" xmlns="http://www.w3.org/2000/svg">
<g id="rocket" clip-path="url(#clip0_1_2)">
<g id="Notes">
<path id="artboard" d="M3289 33H-11V2233H3289V33Z" fill="white"/>
<path id="Vector" d="M252 325H3025" stroke="black" stroke-width="0.5"/>
<text id="Weight/Scale Variations" fill="black" xml:space="preserve" style="white-space: pre" font-family="Inter" font-size="13" font-weight="bold" letter-spacing="0em"><tspan x="252" y="354.727">Weight/Scale Variations</tspan></text>
<text id="Ultralight" fill="black" xml:space="preserve" style="white-space: pre" font-family="Inter" font-size="13" letter-spacing="0em"><tspan x="520.661" y="354.727">Ultralight</tspan></text>
<text id="Thin" fill="black" xml:space="preserve" style="white-space: pre" font-family="Inter" font-size="13" letter-spacing="0em"><tspan x="832.067" y="354.727">Thin</tspan></text>
<text id="Light" fill="black" xml:space="preserve" style="white-space: pre" font-family="Inter" font-size="13" letter-spacing="0em"><tspan x="1126.77" y="354.727">Light</tspan></text>
<text id="Regular" fill="black" xml:space="preserve" style="white-space: pre" font-family="Inter" font-size="13" letter-spacing="0em"><tspan x="1415.58" y="354.727">Regular</tspan></text>
<text id="Medium" fill="black" xml:space="preserve" style="white-space: pre" font-family="Inter" font-size="13" letter-spacing="0em"><tspan x="1710.99" y="354.727">Medium</tspan></text>
<text id="Semibold" fill="black" xml:space="preserve" style="white-space: pre" font-family="Inter" font-size="13" letter-spacing="0em"><tspan x="2003.65" y="354.727">Semibold</tspan></text>
<text id="Bold" fill="black" xml:space="preserve" style="white-space: pre" font-family="Inter" font-size="13" letter-spacing="0em"><tspan x="2315.29" y="354.727">Bold</tspan></text>
<text id="Heavy" fill="black" xml:space="preserve" style="white-space: pre" font-family="Inter" font-size="13" letter-spacing="0em"><tspan x="2606.32" y="354.727">Heavy</tspan></text>
<text id="Black" fill="black" xml:space="preserve" style="white-space: pre" font-family="Inter" font-size="13" letter-spacing="0em"><tspan x="2905.8" y="354.727">Black</tspan></text>
<path id="Vector_2" d="M252 1936H3025" stroke="black" stroke-width="0.5"/>
<g id="Group">
<path id="Vector_3" d="M261.248 1966.83C265.604 1966.83 269.139 1963.3 269.139 1958.95C269.139 1954.59 265.604 1951.07 261.248 1951.07C256.902 1951.07 253.367 1954.59 253.367 1958.95C253.367 1963.3 256.902 1966.83 261.248 1966.83ZM261.248 1965.35C257.713 1965.35 254.861 1962.48 254.861 1958.95C254.861 1955.41 257.713 1952.55 261.248 1952.55C264.783 1952.55 267.645 1955.41 267.645 1958.95C267.645 1962.48 264.783 1965.35 261.248 1965.35ZM257.654 1958.95C257.654 1959.38 257.957 1959.67 258.406 1959.67H260.506V1961.79C260.506 1962.23 260.799 1962.53 261.228 1962.53C261.678 1962.53 261.971 1962.23 261.971 1961.79V1959.67H264.09C264.529 1959.67 264.832 1959.38 264.832 1958.95C264.832 1958.51 264.529 1958.21 264.09 1958.21H261.971V1956.1C261.971 1955.65 261.678 1955.35 261.228 1955.35C260.799 1955.35 260.506 1955.65 260.506 1956.1V1958.21H258.406C257.957 1958.21 257.654 1958.51 257.654 1958.95Z" fill="black"/>
</g>
<g id="Group_2">
<path id="Vector_4" d="M282.215 1968.91C287.713 1968.91 292.176 1964.45 292.176 1958.95C292.176 1953.45 287.713 1948.99 282.215 1948.99C276.717 1948.99 272.254 1953.45 272.254 1958.95C272.254 1964.45 276.717 1968.91 282.215 1968.91ZM282.215 1967.25C277.625 1967.25 273.914 1963.54 273.914 1958.95C273.914 1954.36 277.625 1950.65 282.215 1950.65C286.805 1950.65 290.516 1954.36 290.516 1958.95C290.516 1963.54 286.805 1967.25 282.215 1967.25ZM277.684 1958.95C277.684 1959.43 278.016 1959.75 278.514 1959.75H281.385V1962.63C281.385 1963.12 281.717 1963.46 282.195 1963.46C282.684 1963.46 283.026 1963.13 283.026 1962.63V1959.75H285.906C286.395 1959.75 286.736 1959.43 286.736 1958.95C286.736 1958.46 286.395 1958.12 285.906 1958.12H283.026V1955.25C283.026 1954.75 282.684 1954.41 282.195 1954.41C281.717 1954.41 281.385 1954.75 281.385 1955.25V1958.12H278.514C278.016 1958.12 277.684 1958.46 277.684 1958.95Z" fill="black"/>
</g>
<g id="Group_3">
<path id="Vector_5" d="M308.895 1971.66C315.916 1971.66 321.619 1965.97 321.619 1958.95C321.619 1951.93 315.916 1946.22 308.895 1946.22C301.873 1946.22 296.18 1951.93 296.18 1958.95C296.18 1965.97 301.873 1971.66 308.895 1971.66ZM308.895 1969.85C302.869 1969.85 297.996 1964.97 297.996 1958.95C297.996 1952.92 302.869 1948.05 308.895 1948.05C314.92 1948.05 319.793 1952.92 319.793 1958.95C319.793 1964.97 314.92 1969.85 308.895 1969.85ZM303.123 1958.95C303.123 1959.47 303.494 1959.83 304.041 1959.83H307.987V1963.78C307.987 1964.32 308.358 1964.7 308.875 1964.7C309.412 1964.7 309.783 1964.33 309.783 1963.78V1959.83H313.739C314.276 1959.83 314.657 1959.47 314.657 1958.95C314.657 1958.4 314.285 1958.03 313.739 1958.03H309.783V1954.09C309.783 1953.54 309.412 1953.16 308.875 1953.16C308.358 1953.16 307.987 1953.54 307.987 1954.09V1958.03H304.041C303.494 1958.03 303.123 1958.4 303.123 1958.95Z" fill="black"/>
</g>
<text id="Design Variations" fill="black" xml:space="preserve" style="white-space: pre" font-family="Inter" font-size="13" font-weight="bold" letter-spacing="0em"><tspan x="252" y="1985.73">Design Variations</tspan></text>
<text id="Symbols are supported in up to nine weights and three scales." fill="black" xml:space="preserve" style="white-space: pre" font-family="Inter" font-size="13" letter-spacing="0em"><tspan x="252" y="2003.73">Symbols are supported in up to nine weights and three scales.</tspan></text>
<text id="For optimal layout with text and other symbols, vertically align" fill="black" xml:space="preserve" style="white-space: pre" font-family="Inter" font-size="13" letter-spacing="0em"><tspan x="252" y="2021.73">For optimal layout with text and other symbols, vertically align</tspan></text>
<text id="symbols with the adjacent text." fill="black" xml:space="preserve" style="white-space: pre" font-family="Inter" font-size="13" letter-spacing="0em"><tspan x="252" y="2039.73">symbols with the adjacent text.</tspan></text>
<path id="Vector_6" d="M765 1952V1966" stroke="#00AEEF" stroke-width="0.5"/>
<g id="Group_4">
<path id="Vector_7" d="M768.311 1966.16C768.828 1966.16 769.082 1965.96 769.268 1965.41L770.527 1961.97H776.289L777.549 1965.41C777.734 1965.96 777.988 1966.16 778.496 1966.16C779.014 1966.16 779.346 1965.84 779.346 1965.36C779.346 1965.19 779.316 1965.03 779.238 1964.83L774.658 1952.63C774.434 1952.04 774.033 1951.73 773.408 1951.73C772.803 1951.73 772.393 1952.03 772.178 1952.62L767.598 1964.84C767.52 1965.04 767.49 1965.2 767.49 1965.37C767.49 1965.85 767.803 1966.16 768.311 1966.16ZM771.006 1960.48L773.379 1953.91H773.428L775.801 1960.48H771.006Z" fill="black"/>
</g>
<path id="Vector_8" d="M781.836 1952V1966" stroke="#00AEEF" stroke-width="0.5"/>
<text id="Margins" fill="black" xml:space="preserve" style="white-space: pre" font-family="Inter" font-size="13" font-weight="bold" letter-spacing="0em"><tspan x="765" y="1985.73">Margins</tspan></text>
<text id="Leading and trailing margins on the left and right side of each symbol" fill="black" xml:space="preserve" style="white-space: pre" font-family="Inter" font-size="13" letter-spacing="0em"><tspan x="765" y="2003.73">Leading and trailing margins on the left and right side of each symbol</tspan></text>
<text id="can be adjusted by modifying the x-location of the margin guidelines." fill="black" xml:space="preserve" style="white-space: pre" font-family="Inter" font-size="13" letter-spacing="0em"><tspan x="765" y="2021.73">can be adjusted by modifying the x-location of the margin guidelines.</tspan></text>
<text id="Modifications are automatically applied proportionally to all" fill="black" xml:space="preserve" style="white-space: pre" font-family="Inter" font-size="13" letter-spacing="0em"><tspan x="765" y="2039.73">Modifications are automatically applied proportionally to all</tspan></text>
<text id="scales and weights." fill="black" xml:space="preserve" style="white-space: pre" font-family="Inter" font-size="13" letter-spacing="0em"><tspan x="765" y="2057.73">scales and weights.</tspan></text>
<g id="Group_5">
<path id="Vector_9" d="M1280.84 1967.87L1282.54 1969.57C1283.4 1970.44 1284.39 1970.38 1285.31 1969.36L1296.01 1957.57L1295.04 1956.6L1284.43 1968.28C1284.07 1968.68 1283.74 1968.77 1283.27 1968.3L1282.1 1967.14C1281.63 1966.68 1281.74 1966.34 1282.14 1965.98L1293.62 1955.18L1292.64 1954.21L1281.05 1965.1C1280.06 1966.02 1279.98 1967 1280.84 1967.87ZM1287.26 1949.67C1286.84 1950.08 1286.81 1950.66 1287.04 1951.05C1287.28 1951.41 1287.74 1951.64 1288.38 1951.48C1289.85 1951.14 1291.37 1951.08 1292.79 1952.02L1292.21 1953.47C1291.87 1954.3 1292.04 1954.89 1292.58 1955.43L1294.88 1957.75C1295.36 1958.24 1295.77 1958.26 1296.34 1958.16L1297.4 1957.96L1298.07 1958.64L1298.03 1959.19C1297.99 1959.69 1298.12 1960.07 1298.61 1960.55L1299.37 1961.29C1299.85 1961.77 1300.46 1961.8 1300.93 1961.33L1303.84 1958.41C1304.31 1957.94 1304.29 1957.35 1303.81 1956.87L1303.04 1956.11C1302.56 1955.63 1302.19 1955.47 1301.71 1955.51L1301.13 1955.56L1300.49 1954.93L1300.73 1953.8C1300.86 1953.24 1300.71 1952.8 1300.12 1952.21L1297.92 1950.02C1294.58 1946.7 1290.15 1946.78 1287.26 1949.67ZM1288.75 1950.04C1291.18 1948.27 1294.47 1948.57 1296.7 1950.79L1299.13 1953.21C1299.37 1953.44 1299.41 1953.63 1299.34 1953.97L1299.02 1955.45L1300.52 1956.94L1301.51 1956.88C1301.76 1956.87 1301.84 1956.89 1302.03 1957.08L1302.61 1957.66L1300.17 1960.1L1299.59 1959.53C1299.4 1959.33 1299.37 1959.25 1299.38 1958.99L1299.45 1958.01L1297.95 1956.53L1296.43 1956.78C1296.11 1956.85 1295.96 1956.82 1295.71 1956.59L1293.71 1954.58C1293.46 1954.35 1293.43 1954.18 1293.59 1953.81L1294.46 1951.72C1292.9 1950.27 1290.87 1949.64 1288.84 1950.24C1288.68 1950.28 1288.63 1950.15 1288.75 1950.04Z" fill="black"/>
</g>
<text id="Exporting" fill="black" xml:space="preserve" style="white-space: pre" font-family="Inter" font-size="13" font-weight="bold" letter-spacing="0em"><tspan x="1278" y="1985.73">Exporting</tspan></text>
<text id="Symbols should be outlined when exporting to ensure the" fill="black" xml:space="preserve" style="white-space: pre" font-family="Inter" font-size="13" letter-spacing="0em"><tspan x="1278" y="2003.73">Symbols should be outlined when exporting to ensure the</tspan></text>
<text id="design is preserved when submitting to Xcode." fill="black" xml:space="preserve" style="white-space: pre" font-family="Inter" font-size="13" letter-spacing="0em"><tspan x="1278" y="2021.73">design is preserved when submitting to Xcode.</tspan></text>
<text id="template-version" fill="black" xml:space="preserve" style="white-space: pre" font-family="Inter" font-size="13" letter-spacing="0em"><tspan x="2935.54" y="1965.73">Template v.6.0</tspan></text>
<text id="Requires Xcode 16 or greater" fill="black" xml:space="preserve" style="white-space: pre" font-family="Inter" font-size="13" letter-spacing="0em"><tspan x="2847.16" y="1983.73">Requires Xcode 16 or greater</tspan></text>
<text id="descriptive-name" fill="black" xml:space="preserve" style="white-space: pre" font-family="Inter" font-size="13" letter-spacing="0em"><tspan x="2849.79" y="2001.73">Generated from arcade.stick</tspan></text>
<text id="Typeset at 100.0 points" fill="black" xml:space="preserve" style="white-space: pre" font-family="Inter" font-size="13" letter-spacing="0em"><tspan x="2881.56" y="2019.73">Typeset at 100.0 points</tspan></text>
<text id="Small" fill="black" xml:space="preserve" style="white-space: pre" font-family="Inter" font-size="13" letter-spacing="0em"><tspan x="252" y="758.727">Small</tspan></text>
<text id="Medium_2" fill="black" xml:space="preserve" style="white-space: pre" font-family="Inter" font-size="13" letter-spacing="0em"><tspan x="252" y="1188.73">Medium</tspan></text>
<text id="Large" fill="black" xml:space="preserve" style="white-space: pre" font-family="Inter" font-size="13" letter-spacing="0em"><tspan x="252" y="1618.73">Large</tspan></text>
</g>
<g id="Guides">
<g id="H-reference">
<path id="Vector_10" d="M339.994 696H342.638L368.328 628.868H369.03V625.541H367.123L339.994 696ZM350.688 671.52H385.981L385.231 669.272H351.438L350.688 671.52ZM394.12 696H396.764L369.638 625.541H368.433V628.868L394.12 696Z" fill="#27AAE1"/>
</g>
<path id="Baseline-S" d="M263 696H3036" stroke="#27AAE1" stroke-width="0.5"/>
<path id="Capline-S" d="M263 625.541H3036" stroke="#27AAE1" stroke-width="0.5"/>
<g id="H-reference_2">
<path id="Vector_11" d="M339.994 1126H342.638L368.328 1058.87H369.03V1055.54H367.123L339.994 1126ZM350.688 1101.52H385.981L385.231 1099.27H351.438L350.688 1101.52ZM394.12 1126H396.764L369.638 1055.54H368.433V1058.87L394.12 1126Z" fill="#27AAE1"/>
</g>
<path id="Baseline-M" d="M263 1126H3036" stroke="#27AAE1" stroke-width="0.5"/>
<path id="Capline-M" d="M263 1055.54H3036" stroke="#27AAE1" stroke-width="0.5"/>
<g id="H-reference_3">
<path id="Vector_12" d="M339.994 1556H342.638L368.328 1488.87H369.03V1485.54H367.123L339.994 1556ZM350.688 1531.52H385.981L385.231 1529.27H351.438L350.688 1531.52ZM394.12 1556H396.764L369.638 1485.54H368.433V1488.87L394.12 1556Z" fill="#27AAE1"/>
</g>
<path id="Baseline-L" d="M263 1556H3036" stroke="#27AAE1" stroke-width="0.5"/>
<path id="Capline-L" d="M263 1485.54H3036" stroke="#27AAE1" stroke-width="0.5"/>
<path id="right-margin-Black-S" d="M2970.48 600.785V720.121" stroke="#00AEEF" stroke-width="0.5"/>
<path id="left-margin-Black-S" d="M2896.32 600.785V720.121" stroke="#00AEEF" stroke-width="0.5"/>
<path id="right-margin-Regular-S" d="M1483.22 600.785V720.121" stroke="#00AEEF" stroke-width="0.5"/>
<path id="left-margin-Regular-S" d="M1416.47 600.785V720.121" stroke="#00AEEF" stroke-width="0.5"/>
<path id="right-margin-Ultralight-S" d="M597 600V719.336" stroke="#00AEEF" stroke-width="0.5"/>
<path id="left-margin-Ultralight-S" d="M524 600V719.336" stroke="#00AEEF" stroke-width="0.5"/>
</g>
<g id="Symbols">
<g id="Black-S">
<g id="Vector_13">
<path d="M2977.53 616.221C2977.44 615.853 2977.18 615.572 2976.81 615.485C2965.05 612.606 2937.86 622.867 2923.13 637.608C2920.25 640.487 2917.9 643.323 2915.97 646.072C2911.43 645.66 2906.89 646.007 2903.02 647.695C2892.09 652.501 2888.91 665.056 2888.03 670.446C2887.81 671.723 2888.87 672.827 2890.15 672.697L2907.69 670.77C2907.71 672.459 2907.82 673.801 2907.93 674.732C2908.01 675.641 2908.42 676.485 2909.07 677.134L2915.86 683.931C2916.51 684.581 2917.36 684.992 2918.26 685.079C2919.19 685.187 2920.54 685.295 2922.2 685.317L2920.28 702.85C2920.15 704.128 2921.25 705.188 2922.53 704.972C2927.91 704.106 2940.48 700.924 2945.26 689.992C2946.94 686.118 2947.29 681.594 2946.9 677.069C2949.65 675.143 2952.5 672.783 2955.38 669.904C2970.17 655.185 2980.36 628.581 2977.53 616.221ZM2942.23 650.834C2938.62 647.219 2938.62 641.374 2942.23 637.759C2945.84 634.144 2951.68 634.144 2955.29 637.759C2958.9 641.374 2958.9 647.219 2955.29 650.834C2951.68 654.449 2945.84 654.449 2942.23 650.834Z" stroke="black" stroke-width="0.5"/>
<path d="M2915.39 686.984C2914.48 687.893 2912.86 688.412 2911.11 688.715C2907.17 689.386 2903.73 685.945 2904.4 682.005C2904.7 680.252 2905.2 678.628 2906.11 677.741L2906.13 677.719C2906.63 677.221 2906.22 676.398 2905.53 676.485C2903.41 676.745 2901.33 677.697 2899.71 679.321C2895.81 683.217 2895.45 697.677 2895.45 697.677C2895.45 697.677 2909.92 697.309 2913.81 693.413C2915.45 691.767 2916.38 689.711 2916.64 687.59C2916.71 686.897 2915.86 686.486 2915.39 686.984Z" stroke="black" stroke-width="0.5"/>
</g>
</g>
<g id="Regular-S">
<g id="Vector_14">
<path d="M1490.56 620.126C1490.48 619.787 1490.24 619.527 1489.9 619.447C1479.05 616.792 1453.98 626.255 1440.4 639.849C1437.75 642.505 1435.57 645.12 1433.8 647.655C1429.61 647.276 1425.42 647.595 1421.85 649.152C1411.78 653.584 1408.84 665.162 1408.03 670.133C1407.83 671.311 1408.8 672.329 1409.98 672.209L1426.16 670.433C1426.18 671.99 1426.28 673.227 1426.38 674.086C1426.46 674.924 1426.84 675.703 1427.43 676.302L1433.7 682.57C1434.3 683.169 1435.07 683.548 1435.91 683.628C1436.77 683.728 1438 683.828 1439.54 683.848L1437.77 700.018C1437.65 701.195 1438.66 702.174 1439.84 701.974C1444.81 701.175 1456.4 698.241 1460.8 688.16C1462.36 684.586 1462.68 680.414 1462.32 676.242C1464.85 674.465 1467.49 672.289 1470.14 669.634C1483.78 656.059 1493.18 631.525 1490.56 620.126ZM1458.01 652.047C1454.68 648.713 1454.68 643.323 1458.01 639.989C1461.34 636.655 1466.73 636.655 1470.06 639.989C1473.39 643.323 1473.39 648.713 1470.06 652.047C1466.73 655.381 1461.34 655.381 1458.01 652.047Z" stroke="black" stroke-width="0.5"/>
<path d="M1433.26 685.385C1432.42 686.223 1430.92 686.702 1429.31 686.982C1425.68 687.601 1422.51 684.427 1423.13 680.793C1423.4 679.176 1423.86 677.679 1424.7 676.861L1424.72 676.841C1425.18 676.382 1424.8 675.623 1424.16 675.703C1422.21 675.942 1420.29 676.821 1418.8 678.318C1415.21 681.911 1414.87 695.247 1414.87 695.247C1414.87 695.247 1428.21 694.907 1431.8 691.314C1433.32 689.797 1434.18 687.9 1434.41 685.944C1434.47 685.305 1433.7 684.926 1433.26 685.385Z" stroke="black" stroke-width="0.5"/>
</g>
</g>
<g id="Ultralight-S">
<g id="Vector_15">
<path d="M594.631 626.95C594.564 626.664 594.362 626.445 594.076 626.377C584.925 624.138 563.78 632.118 552.324 643.584C550.087 645.823 548.253 648.029 546.756 650.167C543.223 649.847 539.691 650.116 536.68 651.43C528.184 655.167 525.712 664.932 525.022 669.124C524.854 670.118 525.678 670.976 526.67 670.875L540.313 669.377C540.33 670.69 540.414 671.734 540.498 672.458C540.565 673.165 540.885 673.822 541.39 674.327L546.672 679.613C547.177 680.118 547.833 680.438 548.539 680.506C549.262 680.59 550.305 680.674 551.601 680.691L550.104 694.328C550.003 695.321 550.861 696.146 551.853 695.978C556.042 695.305 565.815 692.83 569.533 684.327C570.845 681.314 571.114 677.795 570.811 674.276C572.948 672.778 575.168 670.943 577.406 668.703C588.912 657.255 596.835 636.563 594.631 626.95ZM567.178 653.871C564.369 651.059 564.369 646.513 567.178 643.702C569.987 640.89 574.529 640.89 577.338 643.702C580.148 646.513 580.148 651.059 577.338 653.871C574.529 656.682 569.987 656.682 567.178 653.871Z" stroke="black" stroke-width="0.5"/>
<path d="M546.302 681.987C545.595 682.694 544.334 683.098 542.971 683.334C539.909 683.856 537.235 681.179 537.756 678.115C537.992 676.751 538.379 675.488 539.085 674.798L539.102 674.781C539.489 674.394 539.169 673.754 538.631 673.822C536.982 674.024 535.367 674.765 534.106 676.027C531.078 679.058 530.792 690.304 530.792 690.304C530.792 690.304 542.046 690.018 545.074 686.988C546.352 685.708 547.076 684.109 547.277 682.459C547.328 681.92 546.672 681.6 546.302 681.987Z" stroke="black" stroke-width="0.5"/>
</g>
</g>
</g>
</g>
<defs>
<clipPath id="clip0_1_2">
<rect width="3300" height="2200" fill="white"/>
</clipPath>
</defs>
</svg>
